<svg id="visual" viewBox="0 0 1920 1080" width="1920" height="1080" xmlns="http://www.w3.org/2000/svg" xmlns:xlink="http://www.w3.org/1999/xlink" version="1.1"><rect x="0" y="0" width="1920" height="1080" fill="#FFFFFF"></rect><defs><linearGradient id="grad1_0" x1="43.8%" y1="100%" x2="100%" y2="0%"><stop offset="14.444444444444446%" stop-color="#0066ff" stop-opacity="1"></stop><stop offset="85.55555555555554%" stop-color="#0066ff" stop-opacity="1"></stop></linearGradient></defs><defs><linearGradient id="grad1_1" x1="43.8%" y1="100%" x2="100%" y2="0%"><stop offset="14.444444444444446%" stop-color="#0066ff" stop-opacity="1"></stop><stop offset="85.55555555555554%" stop-color="#7789ff" stop-opacity="1"></stop></linearGradient></defs><defs><linearGradient id="grad1_2" x1="43.8%" y1="100%" x2="100%" y2="0%"><stop offset="14.444444444444446%" stop-color="#acafff" stop-opacity="1"></stop><stop offset="85.55555555555554%" stop-color="#7789ff" stop-opacity="1"></stop></linearGradient></defs><defs><linearGradient id="grad1_3" x1="43.8%" y1="100%" x2="100%" y2="0%"><stop offset="14.444444444444446%" stop-color="#acafff" stop-opacity="1"></stop><stop offset="85.55555555555554%" stop-color="#d7d6ff" stop-opacity="1"></stop></linearGradient></defs><defs><linearGradient id="grad1_4" x1="43.8%" y1="100%" x2="100%" y2="0%"><stop offset="14.444444444444446%" stop-color="#ffffff" stop-opacity="1"></stop><stop offset="85.55555555555554%" stop-color="#d7d6ff" stop-opacity="1"></stop></linearGradient></defs><defs><linearGradient id="grad2_0" x1="0%" y1="100%" x2="56.3%" y2="0%"><stop offset="14.444444444444446%" stop-color="#0066ff" stop-opacity="1"></stop><stop offset="85.55555555555554%" stop-color="#0066ff" stop-opacity="1"></stop></linearGradient></defs><defs><linearGradient id="grad2_1" x1="0%" y1="100%" x2="56.3%" y2="0%"><stop offset="14.444444444444446%" stop-color="#7789ff" stop-opacity="1"></stop><stop offset="85.55555555555554%" stop-color="#0066ff" stop-opacity="1"></stop></linearGradient></defs><defs><linearGradient id="grad2_2" x1="0%" y1="100%" x2="56.3%" y2="0%"><stop offset="14.444444444444446%" stop-color="#7789ff" stop-opacity="1"></stop><stop offset="85.55555555555554%" stop-color="#acafff" stop-opacity="1"></stop></linearGradient></defs><defs><linearGradient id="grad2_3" x1="0%" y1="100%" x2="56.3%" y2="0%"><stop offset="14.444444444444446%" stop-color="#d7d6ff" stop-opacity="1"></stop><stop offset="85.55555555555554%" stop-color="#acafff" stop-opacity="1"></stop></linearGradient></defs><defs><linearGradient id="grad2_4" x1="0%" y1="100%" x2="56.3%" y2="0%"><stop offset="14.444444444444446%" stop-color="#d7d6ff" stop-opacity="1"></stop><stop offset="85.55555555555554%" stop-color="#ffffff" stop-opacity="1"></stop></linearGradient></defs><g transform="translate(1920, 1080)"><path d="M-424 0C-420.8 -57.7 -417.7 -115.4 -395.4 -163.8C-373.2 -212.1 -331.9 -251.1 -292 -292C-252.2 -333 -213.8 -375.8 -165.3 -399.1C-116.9 -422.4 -58.4 -426.2 0 -430L0 0Z" fill="#eceaff"></path><path d="M-339.2 0C-336.7 -46.2 -334.1 -92.4 -316.3 -131C-298.5 -169.7 -265.5 -200.9 -233.6 -233.6C-201.7 -266.4 -171 -300.6 -132.3 -319.3C-93.5 -337.9 -46.8 -341 0 -344L0 0Z" fill="#c2c2ff"></path><path d="M-254.4 0C-252.5 -34.6 -250.6 -69.3 -237.3 -98.3C-223.9 -127.3 -199.1 -150.7 -175.2 -175.2C-151.3 -199.8 -128.3 -225.5 -99.2 -239.5C-70.1 -253.5 -35.1 -255.7 0 -258L0 0Z" fill="#939cff"></path><path d="M-169.6 0C-168.3 -23.1 -167.1 -46.2 -158.2 -65.5C-149.3 -84.9 -132.8 -100.4 -116.8 -116.8C-100.9 -133.2 -85.5 -150.3 -66.1 -159.6C-46.8 -169 -23.4 -170.5 0 -172L0 0Z" fill="#5477ff"></path><path d="M-84.8 0C-84.2 -11.5 -83.5 -23.1 -79.1 -32.8C-74.6 -42.4 -66.4 -50.2 -58.4 -58.4C-50.4 -66.6 -42.8 -75.2 -33.1 -79.8C-23.4 -84.5 -11.7 -85.2 0 -86L0 0Z" fill="#0066ff"></path></g><g transform="translate(0, 0)"><path d="M412 0C405.7 53.4 399.5 106.7 383.4 158.8C367.3 210.9 341.4 261.7 304.1 304.1C266.7 346.4 217.9 380.4 165.3 399.1C112.7 417.9 56.4 421.4 0 425L0 0Z" fill="#eceaff"></path><path d="M329.6 0C324.6 42.7 319.6 85.4 306.7 127.1C293.9 168.7 273.1 209.4 243.2 243.2C213.4 277.1 174.3 304.3 132.3 319.3C90.2 334.3 45.1 337.1 0 340L0 0Z" fill="#c2c2ff"></path><path d="M247.2 0C243.4 32 239.7 64 230 95.3C220.4 126.5 204.8 157 182.4 182.4C160 207.9 130.7 228.2 99.2 239.5C67.6 250.7 33.8 252.9 0 255L0 0Z" fill="#939cff"></path><path d="M164.8 0C162.3 21.3 159.8 42.7 153.4 63.5C146.9 84.4 136.6 104.7 121.6 121.6C106.7 138.6 87.2 152.1 66.1 159.6C45.1 167.1 22.5 168.6 0 170L0 0Z" fill="#5477ff"></path><path d="M82.4 0C81.1 10.7 79.9 21.3 76.7 31.8C73.5 42.2 68.3 52.3 60.8 60.8C53.3 69.3 43.6 76.1 33.1 79.8C22.5 83.6 11.3 84.3 0 85L0 0Z" fill="#0066ff"></path></g></svg>