<svg id="visual" viewBox="0 0 1366 768" width="1366" height="768" xmlns="http://www.w3.org/2000/svg" xmlns:xlink="http://www.w3.org/1999/xlink" version="1.1"><rect x="0" y="0" width="1366" height="768" fill="#FFFFFF"></rect><defs><linearGradient id="grad1_0" x1="43.8%" y1="100%" x2="100%" y2="0%"><stop offset="14.427083333333334%" stop-color="#0066ff" stop-opacity="1"></stop><stop offset="85.57291666666667%" stop-color="#0066ff" stop-opacity="1"></stop></linearGradient></defs><defs><linearGradient id="grad1_1" x1="43.8%" y1="100%" x2="100%" y2="0%"><stop offset="14.427083333333334%" stop-color="#0066ff" stop-opacity="1"></stop><stop offset="85.57291666666667%" stop-color="#7789ff" stop-opacity="1"></stop></linearGradient></defs><defs><linearGradient id="grad1_2" x1="43.8%" y1="100%" x2="100%" y2="0%"><stop offset="14.427083333333334%" stop-color="#acafff" stop-opacity="1"></stop><stop offset="85.57291666666667%" stop-color="#7789ff" stop-opacity="1"></stop></linearGradient></defs><defs><linearGradient id="grad1_3" x1="43.8%" y1="100%" x2="100%" y2="0%"><stop offset="14.427083333333334%" stop-color="#acafff" stop-opacity="1"></stop><stop offset="85.57291666666667%" stop-color="#d7d6ff" stop-opacity="1"></stop></linearGradient></defs><defs><linearGradient id="grad1_4" x1="43.8%" y1="100%" x2="100%" y2="0%"><stop offset="14.427083333333334%" stop-color="#ffffff" stop-opacity="1"></stop><stop offset="85.57291666666667%" stop-color="#d7d6ff" stop-opacity="1"></stop></linearGradient></defs><defs><linearGradient id="grad2_0" x1="0%" y1="100%" x2="56.2%" y2="0%"><stop offset="14.427083333333334%" stop-color="#0066ff" stop-opacity="1"></stop><stop offset="85.57291666666667%" stop-color="#0066ff" stop-opacity="1"></stop></linearGradient></defs><defs><linearGradient id="grad2_1" x1="0%" y1="100%" x2="56.2%" y2="0%"><stop offset="14.427083333333334%" stop-color="#7789ff" stop-opacity="1"></stop><stop offset="85.57291666666667%" stop-color="#0066ff" stop-opacity="1"></stop></linearGradient></defs><defs><linearGradient id="grad2_2" x1="0%" y1="100%" x2="56.2%" y2="0%"><stop offset="14.427083333333334%" stop-color="#7789ff" stop-opacity="1"></stop><stop offset="85.57291666666667%" stop-color="#acafff" stop-opacity="1"></stop></linearGradient></defs><defs><linearGradient id="grad2_3" x1="0%" y1="100%" x2="56.2%" y2="0%"><stop offset="14.427083333333334%" stop-color="#d7d6ff" stop-opacity="1"></stop><stop offset="85.57291666666667%" stop-color="#acafff" stop-opacity="1"></stop></linearGradient></defs><defs><linearGradient id="grad2_4" x1="0%" y1="100%" x2="56.2%" y2="0%"><stop offset="14.427083333333334%" stop-color="#d7d6ff" stop-opacity="1"></stop><stop offset="85.57291666666667%" stop-color="#ffffff" stop-opacity="1"></stop></linearGradient></defs><g transform="translate(1366, 768)"><path d="M-267 0C-259.8 -33.7 -252.5 -67.4 -240.2 -99.5C-227.9 -131.6 -210.5 -162.2 -186.7 -186.7C-162.8 -211.1 -132.5 -229.4 -100.3 -242.1C-68.1 -254.7 -34 -261.8 0 -268.8L0 0Z" fill="#eceaff"></path><path d="M-213.6 0C-207.8 -26.9 -202 -53.9 -192.2 -79.6C-182.3 -105.3 -168.4 -129.8 -149.3 -149.3C-130.3 -168.9 -106 -183.5 -80.2 -193.6C-54.5 -203.8 -27.2 -209.4 0 -215L0 0Z" fill="#c2c2ff"></path><path d="M-160.2 0C-155.9 -20.2 -151.5 -40.4 -144.1 -59.7C-136.7 -79 -126.3 -97.3 -112 -112C-97.7 -126.7 -79.5 -137.6 -60.2 -145.2C-40.8 -152.8 -20.4 -157.1 0 -161.3L0 0Z" fill="#939cff"></path><path d="M-106.8 0C-103.9 -13.5 -101 -26.9 -96.1 -39.8C-91.2 -52.7 -84.2 -64.9 -74.7 -74.7C-65.1 -84.4 -53 -91.8 -40.1 -96.8C-27.2 -101.9 -13.6 -104.7 0 -107.5L0 0Z" fill="#5477ff"></path><path d="M-53.4 0C-52 -6.7 -50.5 -13.5 -48 -19.9C-45.6 -26.3 -42.1 -32.4 -37.3 -37.3C-32.6 -42.2 -26.5 -45.9 -20.1 -48.4C-13.6 -50.9 -6.8 -52.4 0 -53.8L0 0Z" fill="#0066ff"></path></g><g transform="translate(0, 0)"><path d="M258 0C258.7 35.3 259.3 70.7 248.3 102.9C237.4 135 214.8 164.1 188.8 188.8C162.8 213.5 133.4 234 101.4 244.8C69.4 255.6 34.7 256.8 0 258L0 0Z" fill="#eceaff"></path><path d="M206.4 0C206.9 28.3 207.4 56.5 198.7 82.3C189.9 108 171.8 131.2 151 151C130.3 170.8 106.8 187.2 81.1 195.9C55.5 204.5 27.8 205.5 0 206.4L0 0Z" fill="#c2c2ff"></path><path d="M154.8 0C155.2 21.2 155.6 42.4 149 61.7C142.4 81 128.9 98.4 113.3 113.3C97.7 128.1 80.1 140.4 60.8 146.9C41.6 153.4 20.8 154.1 0 154.8L0 0Z" fill="#939cff"></path><path d="M103.2 0C103.5 14.1 103.7 28.3 99.3 41.1C94.9 54 85.9 65.6 75.5 75.5C65.1 85.4 53.4 93.6 40.6 97.9C27.8 102.3 13.9 102.7 0 103.2L0 0Z" fill="#5477ff"></path><path d="M51.6 0C51.7 7.1 51.9 14.1 49.7 20.6C47.5 27 43 32.8 37.8 37.8C32.6 42.7 26.7 46.8 20.3 49C13.9 51.1 6.9 51.4 0 51.6L0 0Z" fill="#0066ff"></path></g></svg>