<svg width="329" height="432" viewBox="0 0 329 432" fill="none" xmlns="http://www.w3.org/2000/svg">
<g clip-path="url(#clip0)">
<path d="M41.408 363.72C34.976 363.72 30.08 361.992 26.72 358.536C23.408 355.08 21.632 350.304 21.392 344.208C21.344 342.912 21.32 340.8 21.32 337.872C21.32 334.896 21.344 332.736 21.392 331.392C21.632 325.344 23.432 320.592 26.792 317.136C30.152 313.632 35.024 311.88 41.408 311.88C45.68 311.88 49.304 312.648 52.28 314.184C55.256 315.672 57.512 317.64 59.048 320.088C60.584 322.536 61.424 325.152 61.568 327.936V328.08C61.568 328.464 61.4 328.8 61.064 329.088C60.776 329.328 60.44 329.448 60.056 329.448H56.096C55.136 329.448 54.536 328.896 54.296 327.792C53.48 324.192 52.016 321.672 49.904 320.232C47.792 318.744 44.96 318 41.408 318C33.152 318 28.88 322.584 28.592 331.752C28.544 333.048 28.52 335.04 28.52 337.728C28.52 340.416 28.544 342.456 28.592 343.848C28.88 353.016 33.152 357.6 41.408 357.6C44.96 357.6 47.792 356.88 49.904 355.44C52.064 353.952 53.528 351.408 54.296 347.808C54.44 347.184 54.656 346.752 54.944 346.512C55.232 346.272 55.616 346.152 56.096 346.152H60.056C60.488 346.152 60.848 346.296 61.136 346.584C61.472 346.824 61.616 347.16 61.568 347.592C61.424 350.424 60.584 353.064 59.048 355.512C57.512 357.96 55.256 359.952 52.28 361.488C49.304 362.976 45.68 363.72 41.408 363.72ZM85.6171 363.72C80.3371 363.72 76.2331 362.232 73.3051 359.256C70.4251 356.28 68.8891 352.32 68.6971 347.376L68.6251 344.28L68.6971 341.184C68.8891 336.288 70.4491 332.352 73.3771 329.376C76.3051 326.352 80.3851 324.84 85.6171 324.84C90.8491 324.84 94.9291 326.352 97.8571 329.376C100.785 332.352 102.345 336.288 102.537 341.184C102.585 341.712 102.609 342.744 102.609 344.28C102.609 345.816 102.585 346.848 102.537 347.376C102.345 352.32 100.785 356.28 97.8571 359.256C94.9771 362.232 90.8971 363.72 85.6171 363.72ZM85.6171 358.176C88.6411 358.176 91.0171 357.216 92.7451 355.296C94.5211 353.376 95.4811 350.616 95.6251 347.016C95.6731 346.536 95.6971 345.624 95.6971 344.28C95.6971 342.936 95.6731 342.024 95.6251 341.544C95.4811 337.944 94.5211 335.184 92.7451 333.264C91.0171 331.344 88.6411 330.384 85.6171 330.384C82.5931 330.384 80.1931 331.344 78.4171 333.264C76.6411 335.184 75.7051 337.944 75.6091 341.544L75.5371 344.28L75.6091 347.016C75.7051 350.616 76.6411 353.376 78.4171 355.296C80.1931 357.216 82.5931 358.176 85.6171 358.176ZM125.305 363.72C120.313 363.72 116.545 362.088 114.001 358.824C111.457 355.56 110.113 351.432 109.969 346.44L109.897 344.28L109.969 342.12C110.113 337.176 111.457 333.072 114.001 329.808C116.545 326.496 120.313 324.84 125.305 324.84C130.249 324.84 134.137 326.592 136.969 330.096V313.536C136.969 313.056 137.113 312.672 137.401 312.384C137.737 312.048 138.145 311.88 138.625 311.88H142.081C142.561 311.88 142.945 312.048 143.233 312.384C143.569 312.672 143.737 313.056 143.737 313.536V361.344C143.737 361.824 143.569 362.232 143.233 362.568C142.945 362.856 142.561 363 142.081 363H138.841C138.361 363 137.953 362.856 137.617 362.568C137.329 362.232 137.185 361.824 137.185 361.344V358.32C134.401 361.92 130.441 363.72 125.305 363.72ZM126.817 357.888C130.129 357.888 132.601 356.808 134.233 354.648C135.913 352.44 136.825 349.824 136.969 346.8C137.017 346.272 137.041 345.36 137.041 344.064C137.041 342.72 137.017 341.784 136.969 341.256C136.873 338.424 135.961 335.952 134.233 333.84C132.505 331.728 130.033 330.672 126.817 330.672C123.409 330.672 120.913 331.728 119.329 333.84C117.793 335.952 116.953 338.736 116.809 342.192L116.737 344.28C116.737 353.352 120.097 357.888 126.817 357.888ZM169.421 363.72C164.477 363.72 160.517 362.208 157.541 359.184C154.613 356.112 153.005 351.936 152.717 346.656L152.645 344.208L152.717 341.832C153.053 336.648 154.685 332.52 157.613 329.448C160.589 326.376 164.501 324.84 169.349 324.84C174.677 324.84 178.805 326.544 181.733 329.952C184.661 333.312 186.125 337.872 186.125 343.632V344.856C186.125 345.336 185.957 345.744 185.621 346.08C185.333 346.368 184.949 346.512 184.469 346.512H159.557V347.16C159.701 350.28 160.637 352.944 162.365 355.152C164.141 357.312 166.469 358.392 169.349 358.392C171.557 358.392 173.357 357.96 174.749 357.096C176.189 356.184 177.245 355.248 177.917 354.288C178.349 353.712 178.661 353.376 178.853 353.28C179.093 353.136 179.501 353.064 180.077 353.064H183.605C184.037 353.064 184.397 353.184 184.685 353.424C184.973 353.664 185.117 354 185.117 354.432C185.117 355.488 184.445 356.76 183.101 358.248C181.805 359.736 179.957 361.032 177.557 362.136C175.205 363.192 172.493 363.72 169.421 363.72ZM179.285 341.544V341.328C179.285 338.016 178.373 335.328 176.549 333.264C174.773 331.152 172.373 330.096 169.349 330.096C166.325 330.096 163.925 331.152 162.149 333.264C160.421 335.328 159.557 338.016 159.557 341.328V341.544H179.285ZM197.326 363C196.846 363 196.438 362.856 196.102 362.568C195.814 362.232 195.67 361.824 195.67 361.344V314.328C195.67 313.8 195.814 313.392 196.102 313.104C196.438 312.768 196.846 312.6 197.326 312.6H217.054C222.19 312.6 226.054 313.824 228.646 316.272C231.238 318.72 232.534 321.936 232.534 325.92C232.534 328.608 231.91 330.84 230.662 332.616C229.462 334.392 228.022 335.688 226.342 336.504C228.358 337.512 230.062 339.072 231.454 341.184C232.846 343.296 233.542 345.72 233.542 348.456C233.542 351.144 232.918 353.592 231.67 355.8C230.47 358.008 228.67 359.76 226.27 361.056C223.87 362.352 220.99 363 217.63 363H197.326ZM215.974 333.912C218.998 333.912 221.302 333.216 222.886 331.824C224.518 330.432 225.334 328.488 225.334 325.992C225.334 323.544 224.542 321.672 222.958 320.376C221.374 319.08 219.046 318.432 215.974 318.432H202.726V333.912H215.974ZM216.694 357.168C219.718 357.168 222.07 356.352 223.75 354.72C225.478 353.088 226.342 351 226.342 348.456C226.342 345.816 225.478 343.704 223.75 342.12C222.07 340.488 219.718 339.672 216.694 339.672H202.726V357.168H216.694ZM258.164 363.72C252.884 363.72 248.78 362.232 245.852 359.256C242.972 356.28 241.436 352.32 241.244 347.376L241.172 344.28L241.244 341.184C241.436 336.288 242.996 332.352 245.924 329.376C248.852 326.352 252.932 324.84 258.164 324.84C263.396 324.84 267.476 326.352 270.404 329.376C273.332 332.352 274.892 336.288 275.084 341.184C275.132 341.712 275.156 342.744 275.156 344.28C275.156 345.816 275.132 346.848 275.084 347.376C274.892 352.32 273.332 356.28 270.404 359.256C267.524 362.232 263.444 363.72 258.164 363.72ZM258.164 358.176C261.188 358.176 263.564 357.216 265.292 355.296C267.068 353.376 268.028 350.616 268.172 347.016C268.22 346.536 268.244 345.624 268.244 344.28C268.244 342.936 268.22 342.024 268.172 341.544C268.028 337.944 267.068 335.184 265.292 333.264C263.564 331.344 261.188 330.384 258.164 330.384C255.14 330.384 252.74 331.344 250.964 333.264C249.188 335.184 248.252 337.944 248.156 341.544L248.084 344.28L248.156 347.016C248.252 350.616 249.188 353.376 250.964 355.296C252.74 357.216 255.14 358.176 258.164 358.176ZM281.53 363C281.146 363 280.786 362.856 280.45 362.568C280.162 362.28 280.018 361.92 280.018 361.488C280.018 361.056 280.186 360.624 280.522 360.192L293.05 343.848L281.314 328.368C280.978 327.984 280.81 327.552 280.81 327.072C280.81 326.64 280.954 326.28 281.242 325.992C281.53 325.704 281.89 325.56 282.322 325.56H285.994C286.714 325.56 287.338 325.944 287.866 326.712L297.442 339.168L307.018 326.784C307.306 326.4 307.57 326.112 307.81 325.92C308.098 325.68 308.458 325.56 308.89 325.56H312.418C312.85 325.56 313.21 325.704 313.498 325.992C313.786 326.28 313.93 326.64 313.93 327.072C313.93 327.552 313.762 327.984 313.426 328.368L301.546 343.992L314.074 360.192C314.41 360.624 314.578 361.056 314.578 361.488C314.578 361.92 314.434 362.28 314.146 362.568C313.858 362.856 313.498 363 313.066 363H309.25C308.53 363 307.906 362.64 307.378 361.92L297.298 348.744L287.074 361.92C286.786 362.256 286.498 362.52 286.21 362.712C285.97 362.904 285.634 363 285.202 363H281.53Z" fill="black"/>
<path d="M130.102 414.18C128.53 414.18 127.312 413.772 126.448 412.956C125.596 412.128 125.146 410.886 125.098 409.23C125.086 408.87 125.08 408.36 125.08 407.7C125.08 407.04 125.086 406.536 125.098 406.188C125.146 404.568 125.614 403.338 126.502 402.498C127.39 401.646 128.59 401.22 130.102 401.22C131.602 401.22 132.796 401.646 133.684 402.498C134.572 403.338 135.04 404.568 135.088 406.188C135.112 406.884 135.124 407.388 135.124 407.7C135.124 408 135.112 408.51 135.088 409.23C135.04 410.886 134.584 412.128 133.72 412.956C132.868 413.772 131.662 414.18 130.102 414.18ZM130.102 412.65C131.05 412.65 131.806 412.362 132.37 411.786C132.934 411.21 133.24 410.328 133.288 409.14C133.312 408.42 133.324 407.94 133.324 407.7C133.324 407.436 133.312 406.956 133.288 406.26C133.24 405.072 132.928 404.19 132.352 403.614C131.788 403.038 131.038 402.75 130.102 402.75C129.154 402.75 128.392 403.038 127.816 403.614C127.252 404.19 126.946 405.072 126.898 406.26C126.886 406.608 126.88 407.088 126.88 407.7C126.88 408.3 126.886 408.78 126.898 409.14C126.946 410.328 127.252 411.21 127.816 411.786C128.392 412.362 129.154 412.65 130.102 412.65ZM137.928 414C137.808 414 137.706 413.964 137.622 413.892C137.55 413.808 137.514 413.706 137.514 413.586V405.054C137.514 404.934 137.55 404.838 137.622 404.766C137.706 404.682 137.808 404.64 137.928 404.64H138.774C138.894 404.64 138.99 404.682 139.062 404.766C139.146 404.838 139.188 404.934 139.188 405.054V405.846C139.536 405.402 139.944 405.06 140.412 404.82C140.892 404.58 141.486 404.46 142.194 404.46C143.346 404.46 144.24 404.832 144.876 405.576C145.524 406.308 145.848 407.286 145.848 408.51V413.586C145.848 413.706 145.806 413.808 145.722 413.892C145.65 413.964 145.554 414 145.434 414H144.534C144.414 414 144.312 413.964 144.228 413.892C144.156 413.808 144.12 413.706 144.12 413.586V408.6C144.12 407.748 143.91 407.088 143.49 406.62C143.082 406.152 142.488 405.918 141.708 405.918C140.952 405.918 140.352 406.158 139.908 406.638C139.464 407.106 139.242 407.76 139.242 408.6V413.586C139.242 413.706 139.2 413.808 139.116 413.892C139.044 413.964 138.948 414 138.828 414H137.928ZM148.862 414C148.742 414 148.64 413.964 148.556 413.892C148.484 413.808 148.448 413.706 148.448 413.586V401.634C148.448 401.514 148.484 401.418 148.556 401.346C148.64 401.262 148.742 401.22 148.862 401.22H149.708C149.828 401.22 149.924 401.262 149.996 401.346C150.08 401.418 150.122 401.514 150.122 401.634V413.586C150.122 413.706 150.08 413.808 149.996 413.892C149.924 413.964 149.828 414 149.708 414H148.862ZM153.077 402.894C152.957 402.894 152.855 402.858 152.771 402.786C152.699 402.702 152.663 402.6 152.663 402.48V401.508C152.663 401.388 152.699 401.286 152.771 401.202C152.855 401.118 152.957 401.076 153.077 401.076H154.211C154.331 401.076 154.433 401.118 154.517 401.202C154.601 401.286 154.643 401.388 154.643 401.508V402.48C154.643 402.6 154.601 402.702 154.517 402.786C154.433 402.858 154.331 402.894 154.211 402.894H153.077ZM153.221 414C153.101 414 152.999 413.964 152.915 413.892C152.843 413.808 152.807 413.706 152.807 413.586V405.054C152.807 404.934 152.843 404.838 152.915 404.766C152.999 404.682 153.101 404.64 153.221 404.64H154.085C154.205 404.64 154.301 404.682 154.373 404.766C154.457 404.838 154.499 404.934 154.499 405.054V413.586C154.499 413.706 154.457 413.808 154.373 413.892C154.301 413.964 154.205 414 154.085 414H153.221ZM157.58 414C157.46 414 157.358 413.964 157.274 413.892C157.202 413.808 157.166 413.706 157.166 413.586V405.054C157.166 404.934 157.202 404.838 157.274 404.766C157.358 404.682 157.46 404.64 157.58 404.64H158.426C158.546 404.64 158.642 404.682 158.714 404.766C158.798 404.838 158.84 404.934 158.84 405.054V405.846C159.188 405.402 159.596 405.06 160.064 404.82C160.544 404.58 161.138 404.46 161.846 404.46C162.998 404.46 163.892 404.832 164.528 405.576C165.176 406.308 165.5 407.286 165.5 408.51V413.586C165.5 413.706 165.458 413.808 165.374 413.892C165.302 413.964 165.206 414 165.086 414H164.186C164.066 414 163.964 413.964 163.88 413.892C163.808 413.808 163.772 413.706 163.772 413.586V408.6C163.772 407.748 163.562 407.088 163.142 406.62C162.734 406.152 162.14 405.918 161.36 405.918C160.604 405.918 160.004 406.158 159.56 406.638C159.116 407.106 158.894 407.76 158.894 408.6V413.586C158.894 413.706 158.852 413.808 158.768 413.892C158.696 413.964 158.6 414 158.48 414H157.58ZM171.826 414.18C170.59 414.18 169.6 413.802 168.856 413.046C168.124 412.278 167.722 411.234 167.65 409.914L167.632 409.302L167.65 408.708C167.734 407.412 168.142 406.38 168.874 405.612C169.618 404.844 170.596 404.46 171.808 404.46C173.14 404.46 174.172 404.886 174.904 405.738C175.636 406.578 176.002 407.718 176.002 409.158V409.464C176.002 409.584 175.96 409.686 175.876 409.77C175.804 409.842 175.708 409.878 175.588 409.878H169.36V410.04C169.396 410.82 169.63 411.486 170.062 412.038C170.506 412.578 171.088 412.848 171.808 412.848C172.36 412.848 172.81 412.74 173.158 412.524C173.518 412.296 173.782 412.062 173.95 411.822C174.058 411.678 174.136 411.594 174.184 411.57C174.244 411.534 174.346 411.516 174.49 411.516H175.372C175.48 411.516 175.57 411.546 175.642 411.606C175.714 411.666 175.75 411.75 175.75 411.858C175.75 412.122 175.582 412.44 175.246 412.812C174.922 413.184 174.46 413.508 173.86 413.784C173.272 414.048 172.594 414.18 171.826 414.18ZM174.292 408.636V408.582C174.292 407.754 174.064 407.082 173.608 406.566C173.164 406.038 172.564 405.774 171.808 405.774C171.052 405.774 170.452 406.038 170.008 406.566C169.576 407.082 169.36 407.754 169.36 408.582V408.636H174.292ZM183.214 414C183.094 414 182.992 413.964 182.908 413.892C182.836 413.808 182.8 413.706 182.8 413.586V401.814C182.8 401.694 182.836 401.598 182.908 401.526C182.992 401.442 183.094 401.4 183.214 401.4H184.168C184.288 401.4 184.384 401.442 184.456 401.526C184.54 401.598 184.582 401.694 184.582 401.814V413.586C184.582 413.706 184.54 413.808 184.456 413.892C184.384 413.964 184.288 414 184.168 414H183.214ZM188.136 414C188.016 414 187.914 413.964 187.83 413.892C187.758 413.808 187.722 413.706 187.722 413.586V401.832C187.722 401.7 187.758 401.598 187.83 401.526C187.914 401.442 188.016 401.4 188.136 401.4H192.222C194.034 401.4 195.342 401.808 196.146 402.624C196.95 403.428 197.37 404.646 197.406 406.278C197.418 406.626 197.424 407.094 197.424 407.682C197.424 408.27 197.418 408.744 197.406 409.104C197.37 410.244 197.178 411.174 196.83 411.894C196.494 412.602 195.96 413.13 195.228 413.478C194.496 413.826 193.524 414 192.312 414H188.136ZM192.222 412.47C193.05 412.47 193.704 412.356 194.184 412.128C194.676 411.9 195.03 411.54 195.246 411.048C195.474 410.544 195.6 409.872 195.624 409.032C195.648 408.312 195.66 407.862 195.66 407.682C195.66 407.49 195.648 407.046 195.624 406.35C195.6 405.162 195.318 404.298 194.778 403.758C194.238 403.206 193.356 402.93 192.132 402.93H189.486V412.47H192.222ZM200.546 414C200.426 414 200.324 413.964 200.24 413.892C200.168 413.808 200.132 413.706 200.132 413.586V401.832C200.132 401.7 200.168 401.598 200.24 401.526C200.324 401.442 200.426 401.4 200.546 401.4H207.98C208.1 401.4 208.196 401.442 208.268 401.526C208.352 401.598 208.394 401.7 208.394 401.832V402.516C208.394 402.636 208.358 402.738 208.286 402.822C208.214 402.894 208.112 402.93 207.98 402.93H201.86V406.872H207.584C207.704 406.872 207.8 406.914 207.872 406.998C207.956 407.07 207.998 407.172 207.998 407.304V407.97C207.998 408.09 207.956 408.192 207.872 408.276C207.8 408.348 207.704 408.384 207.584 408.384H201.86V412.47H208.124C208.256 412.47 208.358 412.506 208.43 412.578C208.502 412.65 208.538 412.752 208.538 412.884V413.586C208.538 413.706 208.496 413.808 208.412 413.892C208.34 413.964 208.244 414 208.124 414H200.546Z" fill="black"/>
<g filter="url(#filter0_d)">
<line x1="167.5" y1="295.623" x2="167.5" y2="166.123" stroke="#0000FF"/>
<line x1="54.5" y1="230.996" x2="55.5" y2="99.9962" stroke="#0000FF"/>
<line x1="279.5" y1="231" x2="279.5" y2="101" stroke="#0000FF"/>
<line x1="167.75" y1="295.19" x2="280.458" y2="230.19" stroke="#0000FF"/>
<line x1="167.746" y1="166.569" x2="279.746" y2="100.569" stroke="#0000FF"/>
<line x1="54.2484" y1="230.566" x2="167.226" y2="295.227" stroke="#0000FF"/>
<line x1="55.2567" y1="99.5709" x2="167.257" y2="166.571" stroke="#0000FF"/>
<line x1="166.255" y1="33.5699" x2="279.255" y2="100.57" stroke="#0000FF"/>
<line x1="55.7445" y1="99.5702" x2="166.744" y2="33.5702" stroke="#0000FF"/>
</g>
</g>
<defs>
<filter id="filter0_d" x="50" y="33.1398" width="234.708" height="270.521" filterUnits="userSpaceOnUse" color-interpolation-filters="sRGB">
<feFlood flood-opacity="0" result="BackgroundImageFix"/>
<feColorMatrix in="SourceAlpha" type="matrix" values="0 0 0 0 0 0 0 0 0 0 0 0 0 0 0 0 0 0 127 0" result="hardAlpha"/>
<feOffset dy="4"/>
<feGaussianBlur stdDeviation="2"/>
<feComposite in2="hardAlpha" operator="out"/>
<feColorMatrix type="matrix" values="0 0 0 0 0 0 0 0 0 0 0 0 0 0 0 0 0 0 0.25 0"/>
<feBlend mode="normal" in2="BackgroundImageFix" result="effect1_dropShadow"/>
<feBlend mode="normal" in="SourceGraphic" in2="effect1_dropShadow" result="shape"/>
</filter>
<clipPath id="clip0">
<rect width="329" height="432" fill="white"/>
</clipPath>
</defs>
</svg>
