<svg width="300" height="127" viewBox="0 0 300 127" fill="none" xmlns="http://www.w3.org/2000/svg">
<g clip-path="url(#clip0)">
<path d="M24.408 67.72C17.976 67.72 13.08 65.992 9.72 62.536C6.408 59.08 4.632 54.304 4.392 48.208C4.344 46.912 4.32 44.8 4.32 41.872C4.32 38.896 4.344 36.736 4.392 35.392C4.632 29.344 6.432 24.592 9.792 21.136C13.152 17.632 18.024 15.88 24.408 15.88C28.68 15.88 32.304 16.648 35.28 18.184C38.256 19.672 40.512 21.64 42.048 24.088C43.584 26.536 44.424 29.152 44.568 31.936V32.08C44.568 32.464 44.4 32.8 44.064 33.088C43.776 33.328 43.44 33.448 43.056 33.448H39.096C38.136 33.448 37.536 32.896 37.296 31.792C36.48 28.192 35.016 25.672 32.904 24.232C30.792 22.744 27.96 22 24.408 22C16.152 22 11.88 26.584 11.592 35.752C11.544 37.048 11.52 39.04 11.52 41.728C11.52 44.416 11.544 46.456 11.592 47.848C11.88 57.016 16.152 61.6 24.408 61.6C27.96 61.6 30.792 60.88 32.904 59.44C35.064 57.952 36.528 55.408 37.296 51.808C37.44 51.184 37.656 50.752 37.944 50.512C38.232 50.272 38.616 50.152 39.096 50.152H43.056C43.488 50.152 43.848 50.296 44.136 50.584C44.472 50.824 44.616 51.16 44.568 51.592C44.424 54.424 43.584 57.064 42.048 59.512C40.512 61.96 38.256 63.952 35.28 65.488C32.304 66.976 28.68 67.72 24.408 67.72ZM68.6171 67.72C63.3371 67.72 59.2331 66.232 56.3051 63.256C53.4251 60.28 51.8891 56.32 51.6971 51.376L51.6251 48.28L51.6971 45.184C51.8891 40.288 53.4491 36.352 56.3771 33.376C59.3051 30.352 63.3851 28.84 68.6171 28.84C73.8491 28.84 77.9291 30.352 80.8571 33.376C83.7851 36.352 85.3451 40.288 85.5371 45.184C85.5851 45.712 85.6091 46.744 85.6091 48.28C85.6091 49.816 85.5851 50.848 85.5371 51.376C85.3451 56.32 83.7851 60.28 80.8571 63.256C77.9771 66.232 73.8971 67.72 68.6171 67.72ZM68.6171 62.176C71.6411 62.176 74.0171 61.216 75.7451 59.296C77.5211 57.376 78.4811 54.616 78.6251 51.016C78.6731 50.536 78.6971 49.624 78.6971 48.28C78.6971 46.936 78.6731 46.024 78.6251 45.544C78.4811 41.944 77.5211 39.184 75.7451 37.264C74.0171 35.344 71.6411 34.384 68.6171 34.384C65.5931 34.384 63.1931 35.344 61.4171 37.264C59.6411 39.184 58.7051 41.944 58.6091 45.544L58.5371 48.28L58.6091 51.016C58.7051 54.616 59.6411 57.376 61.4171 59.296C63.1931 61.216 65.5931 62.176 68.6171 62.176ZM108.305 67.72C103.313 67.72 99.5449 66.088 97.0009 62.824C94.4569 59.56 93.1129 55.432 92.9689 50.44L92.8969 48.28L92.9689 46.12C93.1129 41.176 94.4569 37.072 97.0009 33.808C99.5449 30.496 103.313 28.84 108.305 28.84C113.249 28.84 117.137 30.592 119.969 34.096V17.536C119.969 17.056 120.113 16.672 120.401 16.384C120.737 16.048 121.145 15.88 121.625 15.88H125.081C125.561 15.88 125.945 16.048 126.233 16.384C126.569 16.672 126.737 17.056 126.737 17.536V65.344C126.737 65.824 126.569 66.232 126.233 66.568C125.945 66.856 125.561 67 125.081 67H121.841C121.361 67 120.953 66.856 120.617 66.568C120.329 66.232 120.185 65.824 120.185 65.344V62.32C117.401 65.92 113.441 67.72 108.305 67.72ZM109.817 61.888C113.129 61.888 115.601 60.808 117.233 58.648C118.913 56.44 119.825 53.824 119.969 50.8C120.017 50.272 120.041 49.36 120.041 48.064C120.041 46.72 120.017 45.784 119.969 45.256C119.873 42.424 118.961 39.952 117.233 37.84C115.505 35.728 113.033 34.672 109.817 34.672C106.409 34.672 103.913 35.728 102.329 37.84C100.793 39.952 99.9529 42.736 99.8089 46.192L99.7369 48.28C99.7369 57.352 103.097 61.888 109.817 61.888ZM152.421 67.72C147.477 67.72 143.517 66.208 140.541 63.184C137.613 60.112 136.005 55.936 135.717 50.656L135.645 48.208L135.717 45.832C136.053 40.648 137.685 36.52 140.613 33.448C143.589 30.376 147.501 28.84 152.349 28.84C157.677 28.84 161.805 30.544 164.733 33.952C167.661 37.312 169.125 41.872 169.125 47.632V48.856C169.125 49.336 168.957 49.744 168.621 50.08C168.333 50.368 167.949 50.512 167.469 50.512H142.557V51.16C142.701 54.28 143.637 56.944 145.365 59.152C147.141 61.312 149.469 62.392 152.349 62.392C154.557 62.392 156.357 61.96 157.749 61.096C159.189 60.184 160.245 59.248 160.917 58.288C161.349 57.712 161.661 57.376 161.853 57.28C162.093 57.136 162.501 57.064 163.077 57.064H166.605C167.037 57.064 167.397 57.184 167.685 57.424C167.973 57.664 168.117 58 168.117 58.432C168.117 59.488 167.445 60.76 166.101 62.248C164.805 63.736 162.957 65.032 160.557 66.136C158.205 67.192 155.493 67.72 152.421 67.72ZM162.285 45.544V45.328C162.285 42.016 161.373 39.328 159.549 37.264C157.773 35.152 155.373 34.096 152.349 34.096C149.325 34.096 146.925 35.152 145.149 37.264C143.421 39.328 142.557 42.016 142.557 45.328V45.544H162.285ZM180.326 67C179.846 67 179.438 66.856 179.102 66.568C178.814 66.232 178.67 65.824 178.67 65.344V18.328C178.67 17.8 178.814 17.392 179.102 17.104C179.438 16.768 179.846 16.6 180.326 16.6H200.054C205.19 16.6 209.054 17.824 211.646 20.272C214.238 22.72 215.534 25.936 215.534 29.92C215.534 32.608 214.91 34.84 213.662 36.616C212.462 38.392 211.022 39.688 209.342 40.504C211.358 41.512 213.062 43.072 214.454 45.184C215.846 47.296 216.542 49.72 216.542 52.456C216.542 55.144 215.918 57.592 214.67 59.8C213.47 62.008 211.67 63.76 209.27 65.056C206.87 66.352 203.99 67 200.63 67H180.326ZM198.974 37.912C201.998 37.912 204.302 37.216 205.886 35.824C207.518 34.432 208.334 32.488 208.334 29.992C208.334 27.544 207.542 25.672 205.958 24.376C204.374 23.08 202.046 22.432 198.974 22.432H185.726V37.912H198.974ZM199.694 61.168C202.718 61.168 205.07 60.352 206.75 58.72C208.478 57.088 209.342 55 209.342 52.456C209.342 49.816 208.478 47.704 206.75 46.12C205.07 44.488 202.718 43.672 199.694 43.672H185.726V61.168H199.694ZM241.164 67.72C235.884 67.72 231.78 66.232 228.852 63.256C225.972 60.28 224.436 56.32 224.244 51.376L224.172 48.28L224.244 45.184C224.436 40.288 225.996 36.352 228.924 33.376C231.852 30.352 235.932 28.84 241.164 28.84C246.396 28.84 250.476 30.352 253.404 33.376C256.332 36.352 257.892 40.288 258.084 45.184C258.132 45.712 258.156 46.744 258.156 48.28C258.156 49.816 258.132 50.848 258.084 51.376C257.892 56.32 256.332 60.28 253.404 63.256C250.524 66.232 246.444 67.72 241.164 67.72ZM241.164 62.176C244.188 62.176 246.564 61.216 248.292 59.296C250.068 57.376 251.028 54.616 251.172 51.016C251.22 50.536 251.244 49.624 251.244 48.28C251.244 46.936 251.22 46.024 251.172 45.544C251.028 41.944 250.068 39.184 248.292 37.264C246.564 35.344 244.188 34.384 241.164 34.384C238.14 34.384 235.74 35.344 233.964 37.264C232.188 39.184 231.252 41.944 231.156 45.544L231.084 48.28L231.156 51.016C231.252 54.616 232.188 57.376 233.964 59.296C235.74 61.216 238.14 62.176 241.164 62.176ZM264.53 67C264.146 67 263.786 66.856 263.45 66.568C263.162 66.28 263.018 65.92 263.018 65.488C263.018 65.056 263.186 64.624 263.522 64.192L276.05 47.848L264.314 32.368C263.978 31.984 263.81 31.552 263.81 31.072C263.81 30.64 263.954 30.28 264.242 29.992C264.53 29.704 264.89 29.56 265.322 29.56H268.994C269.714 29.56 270.338 29.944 270.866 30.712L280.442 43.168L290.018 30.784C290.306 30.4 290.57 30.112 290.81 29.92C291.098 29.68 291.458 29.56 291.89 29.56H295.418C295.85 29.56 296.21 29.704 296.498 29.992C296.786 30.28 296.93 30.64 296.93 31.072C296.93 31.552 296.762 31.984 296.426 32.368L284.546 47.992L297.074 64.192C297.41 64.624 297.578 65.056 297.578 65.488C297.578 65.92 297.434 66.28 297.146 66.568C296.858 66.856 296.498 67 296.066 67H292.25C291.53 67 290.906 66.64 290.378 65.92L280.298 52.744L270.074 65.92C269.786 66.256 269.498 66.52 269.21 66.712C268.97 66.904 268.634 67 268.202 67H264.53Z" fill="black"/>
<path d="M113.102 118.18C111.53 118.18 110.312 117.772 109.448 116.956C108.596 116.128 108.146 114.886 108.098 113.23C108.086 112.87 108.08 112.36 108.08 111.7C108.08 111.04 108.086 110.536 108.098 110.188C108.146 108.568 108.614 107.338 109.502 106.498C110.39 105.646 111.59 105.22 113.102 105.22C114.602 105.22 115.796 105.646 116.684 106.498C117.572 107.338 118.04 108.568 118.088 110.188C118.112 110.884 118.124 111.388 118.124 111.7C118.124 112 118.112 112.51 118.088 113.23C118.04 114.886 117.584 116.128 116.72 116.956C115.868 117.772 114.662 118.18 113.102 118.18ZM113.102 116.65C114.05 116.65 114.806 116.362 115.37 115.786C115.934 115.21 116.24 114.328 116.288 113.14C116.312 112.42 116.324 111.94 116.324 111.7C116.324 111.436 116.312 110.956 116.288 110.26C116.24 109.072 115.928 108.19 115.352 107.614C114.788 107.038 114.038 106.75 113.102 106.75C112.154 106.75 111.392 107.038 110.816 107.614C110.252 108.19 109.946 109.072 109.898 110.26C109.886 110.608 109.88 111.088 109.88 111.7C109.88 112.3 109.886 112.78 109.898 113.14C109.946 114.328 110.252 115.21 110.816 115.786C111.392 116.362 112.154 116.65 113.102 116.65ZM120.928 118C120.808 118 120.706 117.964 120.622 117.892C120.55 117.808 120.514 117.706 120.514 117.586V109.054C120.514 108.934 120.55 108.838 120.622 108.766C120.706 108.682 120.808 108.64 120.928 108.64H121.774C121.894 108.64 121.99 108.682 122.062 108.766C122.146 108.838 122.188 108.934 122.188 109.054V109.846C122.536 109.402 122.944 109.06 123.412 108.82C123.892 108.58 124.486 108.46 125.194 108.46C126.346 108.46 127.24 108.832 127.876 109.576C128.524 110.308 128.848 111.286 128.848 112.51V117.586C128.848 117.706 128.806 117.808 128.722 117.892C128.65 117.964 128.554 118 128.434 118H127.534C127.414 118 127.312 117.964 127.228 117.892C127.156 117.808 127.12 117.706 127.12 117.586V112.6C127.12 111.748 126.91 111.088 126.49 110.62C126.082 110.152 125.488 109.918 124.708 109.918C123.952 109.918 123.352 110.158 122.908 110.638C122.464 111.106 122.242 111.76 122.242 112.6V117.586C122.242 117.706 122.2 117.808 122.116 117.892C122.044 117.964 121.948 118 121.828 118H120.928ZM131.862 118C131.742 118 131.64 117.964 131.556 117.892C131.484 117.808 131.448 117.706 131.448 117.586V105.634C131.448 105.514 131.484 105.418 131.556 105.346C131.64 105.262 131.742 105.22 131.862 105.22H132.708C132.828 105.22 132.924 105.262 132.996 105.346C133.08 105.418 133.122 105.514 133.122 105.634V117.586C133.122 117.706 133.08 117.808 132.996 117.892C132.924 117.964 132.828 118 132.708 118H131.862ZM136.077 106.894C135.957 106.894 135.855 106.858 135.771 106.786C135.699 106.702 135.663 106.6 135.663 106.48V105.508C135.663 105.388 135.699 105.286 135.771 105.202C135.855 105.118 135.957 105.076 136.077 105.076H137.211C137.331 105.076 137.433 105.118 137.517 105.202C137.601 105.286 137.643 105.388 137.643 105.508V106.48C137.643 106.6 137.601 106.702 137.517 106.786C137.433 106.858 137.331 106.894 137.211 106.894H136.077ZM136.221 118C136.101 118 135.999 117.964 135.915 117.892C135.843 117.808 135.807 117.706 135.807 117.586V109.054C135.807 108.934 135.843 108.838 135.915 108.766C135.999 108.682 136.101 108.64 136.221 108.64H137.085C137.205 108.64 137.301 108.682 137.373 108.766C137.457 108.838 137.499 108.934 137.499 109.054V117.586C137.499 117.706 137.457 117.808 137.373 117.892C137.301 117.964 137.205 118 137.085 118H136.221ZM140.58 118C140.46 118 140.358 117.964 140.274 117.892C140.202 117.808 140.166 117.706 140.166 117.586V109.054C140.166 108.934 140.202 108.838 140.274 108.766C140.358 108.682 140.46 108.64 140.58 108.64H141.426C141.546 108.64 141.642 108.682 141.714 108.766C141.798 108.838 141.84 108.934 141.84 109.054V109.846C142.188 109.402 142.596 109.06 143.064 108.82C143.544 108.58 144.138 108.46 144.846 108.46C145.998 108.46 146.892 108.832 147.528 109.576C148.176 110.308 148.5 111.286 148.5 112.51V117.586C148.5 117.706 148.458 117.808 148.374 117.892C148.302 117.964 148.206 118 148.086 118H147.186C147.066 118 146.964 117.964 146.88 117.892C146.808 117.808 146.772 117.706 146.772 117.586V112.6C146.772 111.748 146.562 111.088 146.142 110.62C145.734 110.152 145.14 109.918 144.36 109.918C143.604 109.918 143.004 110.158 142.56 110.638C142.116 111.106 141.894 111.76 141.894 112.6V117.586C141.894 117.706 141.852 117.808 141.768 117.892C141.696 117.964 141.6 118 141.48 118H140.58ZM154.826 118.18C153.59 118.18 152.6 117.802 151.856 117.046C151.124 116.278 150.722 115.234 150.65 113.914L150.632 113.302L150.65 112.708C150.734 111.412 151.142 110.38 151.874 109.612C152.618 108.844 153.596 108.46 154.808 108.46C156.14 108.46 157.172 108.886 157.904 109.738C158.636 110.578 159.002 111.718 159.002 113.158V113.464C159.002 113.584 158.96 113.686 158.876 113.77C158.804 113.842 158.708 113.878 158.588 113.878H152.36V114.04C152.396 114.82 152.63 115.486 153.062 116.038C153.506 116.578 154.088 116.848 154.808 116.848C155.36 116.848 155.81 116.74 156.158 116.524C156.518 116.296 156.782 116.062 156.95 115.822C157.058 115.678 157.136 115.594 157.184 115.57C157.244 115.534 157.346 115.516 157.49 115.516H158.372C158.48 115.516 158.57 115.546 158.642 115.606C158.714 115.666 158.75 115.75 158.75 115.858C158.75 116.122 158.582 116.44 158.246 116.812C157.922 117.184 157.46 117.508 156.86 117.784C156.272 118.048 155.594 118.18 154.826 118.18ZM157.292 112.636V112.582C157.292 111.754 157.064 111.082 156.608 110.566C156.164 110.038 155.564 109.774 154.808 109.774C154.052 109.774 153.452 110.038 153.008 110.566C152.576 111.082 152.36 111.754 152.36 112.582V112.636H157.292ZM166.214 118C166.094 118 165.992 117.964 165.908 117.892C165.836 117.808 165.8 117.706 165.8 117.586V105.814C165.8 105.694 165.836 105.598 165.908 105.526C165.992 105.442 166.094 105.4 166.214 105.4H167.168C167.288 105.4 167.384 105.442 167.456 105.526C167.54 105.598 167.582 105.694 167.582 105.814V117.586C167.582 117.706 167.54 117.808 167.456 117.892C167.384 117.964 167.288 118 167.168 118H166.214ZM171.136 118C171.016 118 170.914 117.964 170.83 117.892C170.758 117.808 170.722 117.706 170.722 117.586V105.832C170.722 105.7 170.758 105.598 170.83 105.526C170.914 105.442 171.016 105.4 171.136 105.4H175.222C177.034 105.4 178.342 105.808 179.146 106.624C179.95 107.428 180.37 108.646 180.406 110.278C180.418 110.626 180.424 111.094 180.424 111.682C180.424 112.27 180.418 112.744 180.406 113.104C180.37 114.244 180.178 115.174 179.83 115.894C179.494 116.602 178.96 117.13 178.228 117.478C177.496 117.826 176.524 118 175.312 118H171.136ZM175.222 116.47C176.05 116.47 176.704 116.356 177.184 116.128C177.676 115.9 178.03 115.54 178.246 115.048C178.474 114.544 178.6 113.872 178.624 113.032C178.648 112.312 178.66 111.862 178.66 111.682C178.66 111.49 178.648 111.046 178.624 110.35C178.6 109.162 178.318 108.298 177.778 107.758C177.238 107.206 176.356 106.93 175.132 106.93H172.486V116.47H175.222ZM183.546 118C183.426 118 183.324 117.964 183.24 117.892C183.168 117.808 183.132 117.706 183.132 117.586V105.832C183.132 105.7 183.168 105.598 183.24 105.526C183.324 105.442 183.426 105.4 183.546 105.4H190.98C191.1 105.4 191.196 105.442 191.268 105.526C191.352 105.598 191.394 105.7 191.394 105.832V106.516C191.394 106.636 191.358 106.738 191.286 106.822C191.214 106.894 191.112 106.93 190.98 106.93H184.86V110.872H190.584C190.704 110.872 190.8 110.914 190.872 110.998C190.956 111.07 190.998 111.172 190.998 111.304V111.97C190.998 112.09 190.956 112.192 190.872 112.276C190.8 112.348 190.704 112.384 190.584 112.384H184.86V116.47H191.124C191.256 116.47 191.358 116.506 191.43 116.578C191.502 116.65 191.538 116.752 191.538 116.884V117.586C191.538 117.706 191.496 117.808 191.412 117.892C191.34 117.964 191.244 118 191.124 118H183.546Z" fill="black"/>
</g>
<defs>
<clipPath id="clip0">
<rect width="300" height="127" fill="white"/>
</clipPath>
</defs>
</svg>
