<svg id="visual" viewBox="0 0 1920 200" width="1920" height="200" xmlns="http://www.w3.org/2000/svg" xmlns:xlink="http://www.w3.org/1999/xlink" version="1.1"><path d="M0 0L53.3 11.8C106.7 23.7 213.3 47.3 320 56.2C426.7 65 533.3 59 640 52.7C746.7 46.3 853.3 39.7 960 49.7C1066.7 59.7 1173.3 86.3 1280 98C1386.7 109.7 1493.3 106.3 1600 93C1706.7 79.7 1813.3 56.3 1866.7 44.7L1920 33L1920 0L1866.7 0C1813.3 0 1706.7 0 1600 0C1493.3 0 1386.7 0 1280 0C1173.3 0 1066.7 0 960 0C853.3 0 746.7 0 640 0C533.3 0 426.7 0 320 0C213.3 0 106.7 0 53.3 0L0 0Z" fill="#ffffff"></path><path d="M0 63L53.3 73.7C106.7 84.3 213.3 105.7 320 114C426.7 122.3 533.3 117.7 640 110.3C746.7 103 853.3 93 960 99.7C1066.7 106.3 1173.3 129.7 1280 138.7C1386.7 147.7 1493.3 142.3 1600 131.3C1706.7 120.3 1813.3 103.7 1866.7 95.3L1920 87L1920 31L1866.7 42.7C1813.3 54.3 1706.7 77.7 1600 91C1493.3 104.3 1386.7 107.7 1280 96C1173.3 84.3 1066.7 57.7 960 47.7C853.3 37.7 746.7 44.3 640 50.7C533.3 57 426.7 63 320 54.5C213.3 46 106.7 23 53.3 11.5L0 0Z" fill="#ced5ff"></path><path d="M0 175L53.3 170.7C106.7 166.3 213.3 157.7 320 158.7C426.7 159.7 533.3 170.3 640 170.7C746.7 171 853.3 161 960 163.7C1066.7 166.3 1173.3 181.7 1280 181.3C1386.7 181 1493.3 165 1600 155C1706.7 145 1813.3 141 1866.7 139L1920 137L1920 85L1866.7 93.3C1813.3 101.7 1706.7 118.3 1600 129.3C1493.3 140.3 1386.7 145.7 1280 136.7C1173.3 127.7 1066.7 104.3 960 97.7C853.3 91 746.7 101 640 108.3C533.3 115.7 426.7 120.3 320 112C213.3 103.7 106.7 82.3 53.3 71.7L0 61Z" fill="#97acff"></path><path d="M0 201L53.3 201C106.7 201 213.3 201 320 201C426.7 201 533.3 201 640 201C746.7 201 853.3 201 960 201C1066.7 201 1173.3 201 1280 201C1386.7 201 1493.3 201 1600 201C1706.7 201 1813.3 201 1866.7 201L1920 201L1920 135L1866.7 137C1813.3 139 1706.7 143 1600 153C1493.3 163 1386.7 179 1280 179.3C1173.3 179.7 1066.7 164.3 960 161.7C853.3 159 746.7 169 640 168.7C533.3 168.3 426.7 157.7 320 156.7C213.3 155.7 106.7 164.3 53.3 168.7L0 173Z" fill="#4a86ff"></path></svg>